<?xml version="1.0"?>
<svg xmlns="http://www.w3.org/2000/svg" viewBox="0 0 50 50">
    <path d="M 25 2 C 22.143578 2 19.334329 3.1154572 17.769531 4.7109375 C 16.824619 5.6741193 16.212094 6.6858353 15.806641 7.6660156 C 14.662715 8.098678 12.242315 9.3322518 11.578125 12.212891 C 10.397903 12.832329 9.5460637 13.873977 9.2265625 15.103516 C 8.898861 16.364612 9.0733753 17.746073 9.6328125 19.017578 C 8.8772027 20.995889 8.8371749 22.632987 9.25 23.851562 C 9.6164412 24.933222 10.166953 25.533866 10.558594 26.050781 C 10.069604 27.035656 9.8424738 28.112227 9.9316406 29.162109 C 10.026733 30.281763 10.414717 31.322825 10.986328 32.203125 C 10.478848 34.837351 11.458476 37.207502 13.433594 38.216797 C 13.343984 40.867897 15.030806 42.935096 17.138672 43.701172 C 17.278581 44.423832 17.566409 45.180731 18.158203 45.972656 C 18.941515 47.020865 20.257924 48 22.011719 48 C 23.208594 48 24.122333 47.70601 24.738281 47.390625 C 24.899815 47.307915 24.873233 47.288618 25 47.203125 C 25.126767 47.288615 25.100185 47.307914 25.261719 47.390625 C 25.877667 47.70601 26.791406 48 27.988281 48 C 29.742076 48 31.058485 47.020865 31.841797 45.972656 C 32.433591 45.180731 32.721419 44.423832 32.861328 43.701172 C 34.969194 42.935096 36.656014 40.867897 36.566406 38.216797 C 38.541524 37.207502 39.521152 34.837351 39.013672 32.203125 C 39.585283 31.322825 39.973267 30.281763 40.068359 29.162109 C 40.157529 28.112227 39.930396 27.035656 39.441406 26.050781 C 39.832987 25.533632 40.383529 24.931356 40.75 23.849609 C 41.162811 22.631076 41.122822 20.995495 40.367188 19.017578 C 40.926625 17.746073 41.101138 16.364612 40.773438 15.103516 C 40.453936 13.873977 39.602097 12.832329 38.421875 12.212891 C 37.757685 9.3322518 35.337285 8.098678 34.193359 7.6660156 C 33.787968 6.6853402 33.176138 5.6743486 32.230469 4.7109375 C 30.665671 3.1154572 27.856422 2 25 2 z M 25 4 C 27.279578 4 29.817532 5.1068084 30.802734 6.1113281 C 32.377982 7.7161281 32.76295 9.3091327 32.929688 10.792969 C 33.013058 11.534887 33.026188 12.23728 33.103516 12.90625 C 33.180846 13.57522 33.303513 14.289842 33.878906 14.865234 C 35.015863 16.002191 35 16.617802 35 18.226562 C 35 19.06223 34.824395 19.447235 34.568359 20.107422 C 34.341035 20.693579 34.122405 21.576418 34.064453 22.675781 C 33.100238 24.119431 32.952683 25.445957 32.837891 26.257812 C 32.755171 26.842858 32.592 27.191591 32.208984 27.560547 C 31.81911 27.117611 31.373099 26.661315 30.466797 26.277344 C 29.995848 26.077861 30.107376 26.074218 29.966797 25.574219 C 29.826218 25.07422 29.454443 24.050178 28.414062 23.576172 A 1.0001 1.0001 0 0 0 27.072266 24.113281 C 27.072266 24.113281 27.038226 24.239746 26.753906 24.478516 C 26.469589 24.717285 25.98488 25.001953 25 25.001953 C 24.01512 25.001953 23.530411 24.717285 23.246094 24.478516 C 22.961777 24.239746 22.927734 24.113281 22.927734 24.113281 A 1.0001 1.0001 0 0 0 21.585938 23.576172 C 20.54525 24.049602 20.173795 25.074051 20.033203 25.574219 C 19.892611 26.074386 20.003983 26.077933 19.533203 26.277344 C 18.626901 26.661315 18.18089 27.117611 17.791016 27.560547 C 17.408 27.191591 17.244832 26.842857 17.162109 26.257812 C 17.047317 25.445957 16.899762 24.119431 15.935547 22.675781 C 15.877595 21.576418 15.658965 20.693579 15.431641 20.107422 C 15.175605 19.447235 15 19.062229 15 18.226562 C 15 16.617802 14.98414 16.002191 16.121094 14.865234 C 16.696718 14.290093 16.819061 13.577072 16.896484 12.908203 C 16.973904 12.239335 16.986884 11.534924 17.070312 10.792969 C 17.237175 9.3090573 17.62241 7.7166331 19.197266 6.1113281 C 20.182468 5.1068084 22.720422 4 25 4 z M 20.109375 13.566406 C 19.891764 13.578373 19.68988 13.608782 19.507812 13.654297 C 18.779545 13.836364 18.292969 14.292969 18.292969 14.292969 A 1.0001 1.0001 0 1 0 19.707031 15.707031 C 19.707031 15.707031 19.72045 15.663631 19.992188 15.595703 C 20.263918 15.527773 20.73162 15.483974 21.552734 15.894531 A 1.0001163 1.0001163 0 1 0 22.447266 14.105469 C 21.857823 13.810747 21.305137 13.653554 20.808594 13.591797 C 20.560322 13.560917 20.326986 13.55444 20.109375 13.566406 z M 29.890625 13.566406 C 29.673014 13.55444 29.439678 13.560918 29.191406 13.591797 C 28.694863 13.653557 28.142177 13.810747 27.552734 14.105469 A 1.0001163 1.0001163 0 1 0 28.447266 15.894531 C 29.26838 15.483974 29.736082 15.52777 30.007812 15.595703 C 30.279545 15.663633 30.292969 15.707031 30.292969 15.707031 A 1.0001 1.0001 0 1 0 31.707031 14.292969 C 31.707031 14.292969 31.220455 13.836364 30.492188 13.654297 C 30.31012 13.608782 30.108236 13.578372 29.890625 13.566406 z M 20.376953 16.945312 A 1.156 1.156 0 0 0 19.220703 18.101562 A 1.156 1.156 0 0 0 20.376953 19.257812 A 1.156 1.156 0 0 0 21.53125 18.101562 A 1.156 1.156 0 0 0 20.376953 16.945312 z M 30 17 A 1 1 0 0 0 29 18 A 1 1 0 0 0 30 19 A 1 1 0 0 0 31 18 A 1 1 0 0 0 30 17 z M 25 29 C 27.347 29 28.575031 30.159969 28.707031 30.292969 C 29.098031 30.683969 29.098031 31.316031 28.707031 31.707031 C 28.512031 31.902031 28.256 32 28 32 C 27.744 32 27.487969 31.902031 27.292969 31.707031 C 27.272969 31.689031 26.519 31 25 31 C 23.481 31 22.727312 31.68875 22.695312 31.71875 C 22.296312 32.09175 21.667109 32.080453 21.287109 31.689453 C 20.908109 31.296453 20.906969 30.679922 21.292969 30.294922 C 21.424969 30.160922 22.653 29 25 29 z"/>
</svg>
